<?xml version="1.0" encoding="UTF-8" standalone="no"?>
<svg
   xmlns:dc="http://purl.org/dc/elements/1.1/"
   xmlns:cc="http://creativecommons.org/ns#"
   xmlns:rdf="http://www.w3.org/1999/02/22-rdf-syntax-ns#"
   xmlns:svg="http://www.w3.org/2000/svg"
   xmlns="http://www.w3.org/2000/svg"
   xmlns:sodipodi="http://sodipodi.sourceforge.net/DTD/sodipodi-0.dtd"
   xmlns:inkscape="http://www.inkscape.org/namespaces/inkscape"
   viewBox="0 0 512 512"
   version="1.1"
   id="svg26"
   sodipodi:docname="papytitl.svg"
   inkscape:version="0.92.4 (5da689c313, 2019-01-14)"
   width="512"
   height="512">
  <metadata
     id="metadata30">
    <rdf:RDF>
      <cc:Work
         rdf:about="">
        <dc:format>image/svg+xml</dc:format>
        <dc:type
           rdf:resource="http://purl.org/dc/dcmitype/StillImage" />
        <dc:title>Artboard 1</dc:title>
      </cc:Work>
    </rdf:RDF>
  </metadata>
  <sodipodi:namedview
     pagecolor="#ffffff"
     bordercolor="#666666"
     borderopacity="1"
     objecttolerance="10"
     gridtolerance="10"
     guidetolerance="10"
     inkscape:pageopacity="0"
     inkscape:pageshadow="2"
     inkscape:window-width="1920"
     inkscape:window-height="1017"
     id="namedview28"
     showgrid="false"
     inkscape:zoom="0.5546875"
     inkscape:cx="256"
     inkscape:cy="128"
     inkscape:window-x="-8"
     inkscape:window-y="-8"
     inkscape:window-maximized="1"
     inkscape:current-layer="svg26" />
  <defs
     id="defs4">
    <style
       id="style2">.cls-1{font-size:115px;fill:#686767;font-family:Lato-Regular, Lato;}.cls-2{letter-spacing:-0.07em;}.cls-3{letter-spacing:-0.02em;}.cls-4,.cls-5{fill:#4caf50;}.cls-5{opacity:0.9;}.cls-6{fill:#388e3c;}</style>
  </defs>
  <title
     id="title6">Artboard 1</title>
  <g
     transform="matrix(2.910531,0,0,2.910531,-448.62501,-42.316591)"
     id="Layer_2"
     data-name="Layer 2">
    <path
       inkscape:connector-curvature="0"
       class="cls-4"
       d="M 223.84,41.49 C 210,27.62 182.82,26 163.61,26 A 3.61,3.61 0 0 0 160,29.62 c 0,19.22 1.61,46.37 15.47,60.24 a 33.58,33.58 0 0 0 23.73,8.47 36,36 0 0 0 24.63,-8.47 c 10.34,-10.34 12.24,-36.14 0.01,-48.37 z"
       id="path19"
       style="fill:#4caf50" />
    <path
       inkscape:connector-curvature="0"
       class="cls-5"
       d="m 321.06,47.28 c -16.66,0 -40.2,1.39 -52.23,13.42 -10.63,10.63 -9,33 0,41.93 a 31.18,31.18 0 0 0 21.36,7.37 29.12,29.12 0 0 0 20.58,-7.35 c 12,-12 13.42,-35.57 13.42,-52.23 a 3.13,3.13 0 0 0 -3.13,-3.14 z"
       id="path21"
       style="opacity:0.9;fill:#4caf50" />
    <path
       inkscape:connector-curvature="0"
       class="cls-6"
       d="m 242.72,180.23 a 3.61,3.61 0 0 1 -3.61,-3.61 c 0,-76.47 -28,-95.66 -38.6,-102.88 A 28.19,28.19 0 0 1 196.9,71 a 3.61,3.61 0 0 1 5.1,-5.1 22.2,22.2 0 0 0 2.58,1.88 c 9.42,6.43 31.42,21.54 39.1,71.09 a 86.4,86.4 0 0 1 47.43,-59 3.9,3.9 0 0 1 5,1.59 3.35,3.35 0 0 1 -1.21,4.54 l -0.18,0.1 -0.58,0.27 C 254.6,105 246.3,145.73 246.3,176.63 a 3.61,3.61 0 0 1 -3.58,3.6 z"
       id="path23"
       style="fill:#388e3c" />
  </g>
</svg>
