<?xml version="1.0" encoding="UTF-8" standalone="no"?>
<svg
   xmlns:dc="http://purl.org/dc/elements/1.1/"
   xmlns:cc="http://creativecommons.org/ns#"
   xmlns:rdf="http://www.w3.org/1999/02/22-rdf-syntax-ns#"
   xmlns:svg="http://www.w3.org/2000/svg"
   xmlns="http://www.w3.org/2000/svg"
   xmlns:sodipodi="http://sodipodi.sourceforge.net/DTD/sodipodi-0.dtd"
   xmlns:inkscape="http://www.inkscape.org/namespaces/inkscape"
   viewBox="0 0 512 512"
   version="1.1"
   id="svg26"
   sodipodi:docname="papytitlcontrast.svg"
   inkscape:version="0.92.4 (5da689c313, 2019-01-14)"
   width="512"
   height="512"
   inkscape:export-filename="C:\xampp1\htdocs\papyrusv2\images\papy.png"
   inkscape:export-xdpi="23.040001"
   inkscape:export-ydpi="23.040001">
  <metadata
     id="metadata30">
    <rdf:RDF>
      <cc:Work
         rdf:about="">
        <dc:format>image/svg+xml</dc:format>
        <dc:type
           rdf:resource="http://purl.org/dc/dcmitype/StillImage" />
        <dc:title>Artboard 1</dc:title>
      </cc:Work>
    </rdf:RDF>
  </metadata>
  <sodipodi:namedview
     pagecolor="#ffffff"
     bordercolor="#666666"
     borderopacity="1"
     objecttolerance="10"
     gridtolerance="10"
     guidetolerance="10"
     inkscape:pageopacity="0"
     inkscape:pageshadow="2"
     inkscape:window-width="1920"
     inkscape:window-height="1017"
     id="namedview28"
     showgrid="false"
     inkscape:zoom="0.5546875"
     inkscape:cx="256"
     inkscape:cy="128"
     inkscape:window-x="-8"
     inkscape:window-y="-8"
     inkscape:window-maximized="1"
     inkscape:current-layer="svg26" />
  <defs
     id="defs4">
    <style
       id="style2">.cls-1{font-size:115px;fill:#686767;font-family:Lato-Regular, Lato;}.cls-2{letter-spacing:-0.07em;}.cls-3{letter-spacing:-0.02em;}.cls-4,.cls-5{fill:#4caf50;}.cls-5{opacity:0.9;}.cls-6{fill:#388e3c;}</style>
  </defs>
  <title
     id="title6">Artboard 1</title>
  <g
     transform="matrix(2.910531,0,0,2.910531,-448.62501,-42.316591)"
     id="Layer_2"
     data-name="Layer 2">
    <path
       inkscape:connector-curvature="0"
       class="cls-4"
       d="M 223.84,41.49 C 210,27.62 182.82,26 163.61,26 A 3.61,3.61 0 0 0 160,29.62 c 0,19.22 1.61,46.37 15.47,60.24 a 33.58,33.58 0 0 0 23.73,8.47 36,36 0 0 0 24.63,-8.47 c 10.34,-10.34 12.24,-36.14 0.01,-48.37 z"
       id="path19"
       style="fill:#4caf50" />
    <path
       inkscape:connector-curvature="0"
       class="cls-5"
       d="m 321.06,47.28 c -16.66,0 -40.2,1.39 -52.23,13.42 -10.63,10.63 -9,33 0,41.93 a 31.18,31.18 0 0 0 21.36,7.37 29.12,29.12 0 0 0 20.58,-7.35 c 12,-12 13.42,-35.57 13.42,-52.23 a 3.13,3.13 0 0 0 -3.13,-3.14 z"
       id="path21"
       style="opacity:0.9;fill:#4caf50" />
    <path
       inkscape:connector-curvature="0"
       class="cls-6"
       d="m 242.72,180.23 a 3.61,3.61 0 0 1 -3.61,-3.61 c 0,-76.47 -28,-95.66 -38.6,-102.88 A 28.19,28.19 0 0 1 196.9,71 a 3.61,3.61 0 0 1 5.1,-5.1 22.2,22.2 0 0 0 2.58,1.88 c 9.42,6.43 31.42,21.54 39.1,71.09 a 86.4,86.4 0 0 1 47.43,-59 3.9,3.9 0 0 1 5,1.59 3.35,3.35 0 0 1 -1.21,4.54 l -0.18,0.1 -0.58,0.27 C 254.6,105 246.3,145.73 246.3,176.63 a 3.61,3.61 0 0 1 -3.58,3.6 z"
       id="path23"
       style="fill:#388e3c" />
  </g>
  <path
     style="opacity:1;fill:#ffffff;fill-opacity:1;stroke:#000000;stroke-width:1.80281687;stroke-opacity:1"
     d="M 102.6231,239.81498 C 86.977871,235.60702 68.946921,225.11093 59.378672,214.64174 43.394901,197.15295 30.400539,166.3449 24.05116,130.88451 20.661979,111.95641 16.582486,48.872972 18.305387,42.034463 c 2.133265,-8.467318 6.410614,-9.158808 42.934446,-6.940916 37.695124,2.289017 58.844387,5.380403 81.270957,11.879368 43.89179,12.719341 69.04658,33.823539 79.3451,66.568425 5.2872,16.81099 5.61814,50.40714 0.65828,66.82638 -3.58037,11.85261 -13.04888,31.65166 -15.12605,31.62921 -0.72938,-0.008 -5.78812,-5.7543 -11.24164,-12.7698 -15.63128,-20.10834 -55.02434,-52.11727 -64.14019,-52.11727 -6.00615,0 -10.06375,4.91228 -9.42196,11.40657 0.45416,4.59562 2.82228,7.15355 13.82107,14.92887 19.68329,13.9146 31.53255,24.67829 43.08565,39.13838 5.69006,7.12179 10.9909,13.23143 11.77964,13.57698 2.35662,1.03242 -19.81366,10.84881 -31.11727,13.77788 -13.27981,3.44113 -44.52626,3.37403 -57.53032,-0.12349 z"
     id="path864"
     inkscape:connector-curvature="0" />
  <path
     style="opacity:1;fill:#ffffff;fill-opacity:1;stroke:#000000;stroke-width:1.80281687;stroke-opacity:1"
     d="m 250.59155,478.46761 c -1.26755,-1.26755 -2.17445,-7.42638 -2.19012,-14.87324 -0.0147,-6.99043 -0.80677,-24.47324 -1.76016,-38.85071 -5.61205,-84.63234 -19.20659,-135.16745 -52.49268,-195.13161 -6.26454,-11.28542 -26.93292,-33.80151 -42.17113,-45.94112 -7.93239,-6.31939 -17.51054,-13.96999 -21.28478,-17.00134 -7.47513,-6.00378 -8.58841,-12.91676 -2.67619,-16.61799 10.44788,-6.54069 64.83447,40.92944 85.02544,74.21258 18.63941,30.72552 33.04792,69.27684 42.24962,113.04286 2.91859,13.88169 5.70725,24.02254 6.19701,22.53521 0.48977,-1.48732 3.5225,-10.81526 6.73942,-20.72873 19.78352,-60.96642 65.62212,-115.47548 120.31779,-143.07612 12.98235,-6.55118 18.50496,-7.06252 22.97158,-2.12695 5.82847,6.44038 2.48461,11.01405 -15.02574,20.55189 -72.65134,39.57297 -113.50783,105.57813 -125.65582,203.00153 -1.41715,11.36514 -2.57664,28.42406 -2.57664,37.90873 0,19.68703 -2.32894,25.25839 -10.55856,25.25839 -2.72011,0 -5.91918,-0.97353 -7.10904,-2.16338 z"
     id="path866"
     inkscape:connector-curvature="0" />
  <path
     style="opacity:1;fill:#ffffff;fill-opacity:1;stroke:#000000;stroke-width:1.80281687;stroke-opacity:1"
     d="m 369.37803,274.05265 c -5.36491,-1.44251 -14.37616,-5.16359 -20.02501,-8.26906 l -10.27065,-5.64631 14.17802,-12.89285 c 7.79791,-7.09106 22.84039,-18.12223 33.42774,-24.51371 18.92275,-11.42347 29.40201,-19.60578 29.40201,-22.95737 0,-3.65321 -7.68097,-11.19863 -11.39845,-11.19728 -10.36349,0.004 -43.92993,20.47405 -66.4805,40.54275 -12.00928,10.68756 -13.36783,11.43899 -15.49622,8.57112 -9.23159,-12.43898 -11.73185,-57.246 -4.26023,-76.34735 8.22201,-21.01976 20.08484,-33.40233 42.71693,-44.58848 24.50297,-12.11086 53.72898,-17.969364 97.68209,-19.580894 23.46394,-0.8603 29.83691,-0.578841 32.25058,1.424331 2.66644,2.212943 2.89174,5.877613 1.98361,32.264973 -3.44211,100.01527 -34.78509,146.42298 -98.55968,145.93151 -8.46773,-0.0653 -19.78534,-1.29887 -25.15024,-2.74138 z"
     id="path868"
     inkscape:connector-curvature="0" />
</svg>
